# xmcd
#
# Track frame offsets:
#       150
#       15931
#       37152
#       55696
#       81196
#       101146
#       124447
#       147394
#       163099
#
# Disc length: 2493 seconds
#
# Revision: 0
# Processed by: cddbd v1.5.2PL0 Copyright (c) Steve Scherf et al.
# Submitted via: WaveLab 6.10
#
DISCID=7909bb09
DTITLE=Mike MacNeil - Another Coffee Morning
DYEAR=2012
DGENRE=
TTITLE0=Another Coffee Morning
TTITLE1=Southward
TTITLE2=Inspiration From The Sea
TTITLE3=Rose Within The Weeds
TTITLE4=Petals
TTITLE5=Just Like Me
TTITLE6=Nothin Missin
TTITLE7=Thin Line
TTITLE8=One More Crossroad
EXTD=
EXTT0=
EXTT1=
EXTT2=
EXTT3=
EXTT4=
EXTT5=
EXTT6=
EXTT7=
EXTT8=
PLAYORDER=
